<svg width="28" height="28" viewBox="0 0 28 28" fill="none" xmlns="http://www.w3.org/2000/svg">
<path fill-rule="evenodd" clip-rule="evenodd" d="M5.33689 3.64959C5.46679 3.40379 5.72199 3.25 6 3.25H22C22.278 3.25 22.5332 3.40376 22.6631 3.64954C22.793 3.89531 22.7763 4.19278 22.6197 4.42247L16.0995 13.9864V21C16.0995 21.2923 15.9297 21.558 15.6643 21.6807L12.9667 22.9284C12.7345 23.0358 12.4635 23.0174 12.2479 22.8796C12.0324 22.7417 11.9019 22.5035 11.9019 22.2476V13.9854L5.38037 4.42257C5.22374 4.19288 5.207 3.89539 5.33689 3.64959ZM7.41928 4.75L13.2715 13.3314C13.3565 13.456 13.4019 13.6032 13.4019 13.754V21.0744L14.5995 20.5205V13.7551C14.5995 13.6044 14.6449 13.4572 14.7298 13.3326L20.581 4.75H7.41928Z" fill="#D51900"/>
<path d="M13.2715 13.3314L7.41928 4.75H20.581L14.7298 13.3326C14.6449 13.4572 14.5995 13.6044 14.5995 13.7551V20.5205L13.4019 21.0744V13.754C13.4019 13.6032 13.3565 13.456 13.2715 13.3314Z" fill="#D51900"/>
</svg>
